<svg xmlns="http://www.w3.org/2000/svg" xmlns:xlink="http://www.w3.org/1999/xlink" viewBox="0 0 2351.2 647.7" enable-background="new 0 0 2351.2 647.7"><defs><path id="a" d="M0-1h2351.2v648.7H0z"/></defs><clipPath id="b"><use xlink:href="#a" overflow="visible"/></clipPath><g opacity=".5" clip-path="url(#b)"><path fill="#2C303A" d="M0 0h2351.2v647.7H0z" opacity=".87"/><path fill="#9B9DAD" d="M2662.7-434.3c-.6-3.5-1.2-7.1-2.1-10.5-.6-2.1-1.3-4.1-2-6.1-1-3.1-2-6.1-3.2-9.1-.8-2.1-1.8-4.1-2.8-6.1-1.4-2.8-2.8-5.6-4.3-8.3-1.1-2-2.4-3.9-3.6-5.8-1.7-2.6-3.4-5.1-5.3-7.6-1.4-1.8-2.8-3.6-4.3-5.4-1.9-2.4-4.1-4.6-6.2-6.8-1.6-1.7-3.3-3.3-5-4.9-2.3-2.1-4.7-4-7.1-5.9-1.8-1.5-3.7-2.9-5.7-4.3-.7-.5-1.3-1.1-2.1-1.6L1276.6-1405c-42-28.1-96.9-28.1-138.9 0L-194.8-516.7c-.7.5-1.3 1.1-2.1 1.6-1.9 1.4-3.8 2.8-5.7 4.3-2.4 1.9-4.8 3.9-7.1 5.9-1.8 1.6-3.4 3.2-5 4.9-2.2 2.2-4.3 4.4-6.3 6.8-1.5 1.8-2.9 3.5-4.3 5.4-1.8 2.5-3.6 5-5.3 7.6-1.2 1.9-2.5 3.8-3.5 5.8-1.6 2.7-3 5.5-4.3 8.3-.9 2-1.9 4-2.8 6.1-1.2 3-2.3 6.1-3.3 9.1-.6 2-1.4 4-1.9 6.1-.9 3.4-1.5 7-2.1 10.5-.4 1.8-.8 3.6-1.1 5.4-.7 5.4-1.1 10.8-1.1 16.4v888.3c0 5.5.4 11 1.1 16.4.3 1.8.7 3.6 1.1 5.4.6 3.5 1.2 7.1 2.1 10.5.5 2.1 1.3 4.1 1.9 6.1 1 3.1 2.1 6.1 3.3 9.2.8 2.1 1.8 4.1 2.8 6.1 1.3 2.8 2.7 5.6 4.3 8.4 1.1 2 2.3 3.9 3.5 5.7 1.7 2.6 3.5 5.1 5.3 7.6 1.4 1.9 2.8 3.7 4.3 5.4 2 2.3 4.1 4.6 6.3 6.8 1.6 1.6 3.2 3.3 5 4.9 2.2 2.1 4.7 4.1 7.1 6 1.9 1.5 3.8 2.9 5.7 4.3.8.5 1.4 1.1 2.1 1.5l1332.5 888.3c21.1 14 45.2 21.1 69.5 21.1 24.2 0 48.5-7.1 69.5-21.1L2609 580c.8-.5 1.4-1 2.1-1.5 2-1.4 3.8-2.8 5.7-4.3 2.5-1.9 4.8-3.9 7.1-6 1.7-1.5 3.4-3.2 5-4.9 2.1-2.2 4.3-4.4 6.2-6.8 1.5-1.8 2.9-3.5 4.3-5.4 1.9-2.5 3.6-5 5.3-7.6 1.2-1.9 2.5-3.8 3.6-5.7 1.5-2.8 2.9-5.5 4.3-8.4.9-2 1.9-4 2.8-6.1 1.2-3 2.2-6.1 3.2-9.2.7-2 1.4-4 2-6.1.9-3.4 1.5-7 2.1-10.5.3-1.8.8-3.6 1-5.4.7-5.4 1.1-10.8 1.1-16.4v-888.3c0-5.5-.5-11-1.1-16.4-.2-1.7-.7-3.5-1-5.3zM1207.1 328L764 31.7l443.1-296.4 443.2 296.4L1207.1 328zm-125.2-810.3L538.7-119.1 100.3-412.3l981.6-654.4v584.4zm-768.5 514L0 241.3V-178L313.4 31.7zm225.3 150.7l543.1 363.2V1130L100.3 475.6l438.4-293.2zm793.7 363.3l543.1-363.2L2314 475.6 1332.4 1130V545.7zm768.5-514L2414.3-178v419.3L2100.9 31.7zm-225.3-150.8l-543.1-363.3v-584.4L2314-412.3l-438.4 293.2z" opacity=".1"/><path fill="#9B9DAD" d="M2598.9 1387.4c1.7-2.9 3.4-5.8 4.9-8.8.8-1.8 1.6-3.7 2.3-5.5 1.2-2.8 2.3-5.6 3.3-8.4.7-2 1.2-4 1.8-6 .8-2.9 1.5-5.7 2-8.5.4-2.1.7-4.2 1-6.3.4-2.9.8-5.7.9-8.6.1-2.1.3-4.2.3-6.4.1-2.8-.1-5.7-.2-8.6-.1-2.2-.3-4.4-.5-6.5-.4-2.9-.9-5.7-1.4-8.6-.4-2.2-.8-4.3-1.4-6.5-.2-.8-.3-1.6-.5-2.4L2210-146.9c-12.6-45.5-51.5-79-98.4-84.9L625.2-416.5c-.8-.1-1.6 0-2.4-.1-2.2-.2-4.4-.3-6.6-.4-2.9-.1-5.8-.2-8.6-.1-2.2 0-4.4.2-6.5.4-2.9.2-5.8.5-8.6 1-2.1.4-4.2.7-6.3 1.2-2.8.6-5.6 1.3-8.4 2.2-2 .6-4.1 1.2-6 2-2.8.9-5.5 2.1-8.1 3.3-1.9.9-3.8 1.7-5.7 2.6-2.7 1.4-5.3 2.9-7.9 4.5-1.7 1.1-3.4 2-5.1 3.1-2.8 1.9-5.3 4-7.9 6.1-1.4 1-2.7 2.1-4.1 3.2-3.8 3.4-7.4 7-10.8 10.9L-20.6 252.5c-3.4 3.9-6.4 8-9.2 12.3-.9 1.5-1.7 3-2.5 4.5-1.7 2.9-3.4 5.7-4.9 8.8-.9 1.8-1.6 3.7-2.4 5.5-1.2 2.8-2.3 5.6-3.3 8.5-.7 2-1.2 4-1.7 6-.8 2.8-1.5 5.6-2.1 8.5-.4 2-.7 4.2-1 6.2-.4 2.9-.7 5.8-.9 8.6-.2 2.2-.2 4.3-.3 6.5 0 2.9.1 5.7.3 8.7.1 2.2.2 4.3.6 6.5.3 2.8.8 5.7 1.3 8.5.5 2.2.9 4.4 1.4 6.5.2.8.3 1.6.5 2.3l401.2 1443.1c6.4 22.8 19.2 42.6 36.3 57.4 17.2 14.8 38.6 24.6 62.1 27.5L1941.3 2073c.8.1 1.6.1 2.4.2 2.2.2 4.4.3 6.6.4 2.9.1 5.8.2 8.7.1 2.1-.1 4.4-.2 6.5-.4 2.8-.2 5.8-.5 8.5-1 2.2-.3 4.2-.7 6.3-1.2 2.9-.6 5.6-1.4 8.4-2.2 2-.6 4.1-1.2 6.1-1.9 2.8-1 5.4-2.1 8.2-3.3 1.9-.9 3.8-1.7 5.6-2.6 2.7-1.4 5.3-3 7.9-4.5 1.7-1 3.4-2 5.1-3.1 2.8-1.9 5.4-4 7.9-6.1 1.3-1.1 2.7-2.1 4-3.2 3.8-3.4 7.4-7 10.8-10.9l542.6-629.2c3.4-3.9 6.4-8.1 9.2-12.3 1.1-1.4 1.9-3 2.8-4.4zm-1496.7-349.2L969.4 557.7l494.9 60.7 132.9 480.6-495-60.8zm406.3-650.5l-606.6-74.5-131.5-475.5 1095 136.1-356.9 413.9zM650.2 282.4l-350-42.9 256.1-297 93.9 339.9zm67.5 244.4l162.9 589.1-356.9 413.9L228 466.7l489.7 60.1zm340.3 742.1l606.6 74.5 131.5 475.5-1095-136.1 356.9-413.9zm858.3 105.3l350.1 43-256.1 297-94-340zm-67.5-244.4L1686 540.7l356.9-413.9 295.6 1063.1-489.7-60.1z" opacity=".21"/><path fill="#9B9DAD" d="M2024.1 895c.6-2.9 1.2-5.7 1.6-8.6.2-1.8.2-3.5.3-5.2.2-2.6.3-5.3.3-7.9 0-1.8-.2-3.7-.2-5.5-.2-2.6-.4-5.1-.7-7.6-.3-1.9-.6-3.7-1-5.5-.5-2.5-1-4.9-1.7-7.4-.5-1.8-1-3.6-1.6-5.4-.7-2.4-1.7-4.7-2.6-7-.7-1.8-1.5-3.5-2.3-5.2-1.1-2.3-2.3-4.5-3.6-6.7-.9-1.7-1.9-3.3-3-5-.4-.6-.7-1.2-1.1-1.8L1268-261.6c-23.3-34-64.9-50.7-105.3-42.2l-1279.6 269c-.7.2-1.3.4-2 .6-1.9.5-3.7 1-5.6 1.5-2.4.7-4.8 1.5-7.1 2.4-1.8.7-3.5 1.4-5.3 2.2-2.4 1-4.6 2.1-6.8 3.2-1.6.9-3.3 1.8-4.9 2.8-2.1 1.3-4.3 2.7-6.3 4.2-1.5 1.1-3 2.1-4.4 3.3-2 1.6-3.9 3.2-5.8 5-1.3 1.2-2.7 2.5-3.9 3.8-2 1.8-3.8 3.8-5.4 5.8-1.1 1.4-2.3 2.6-3.3 4-1.7 2.3-3.3 4.8-4.8 7.3-.8 1.2-1.7 2.5-2.5 3.8-2.2 3.9-4.1 7.9-5.8 12.1l-269.6 673.3c-1.7 4.2-3 8.4-4.1 12.7-.3 1.5-.6 2.9-.8 4.4-.6 2.9-1.2 5.7-1.6 8.6-.2 1.7-.2 3.5-.4 5.2-.2 2.6-.3 5.3-.3 7.9 0 1.8.2 3.6.3 5.4.1 2.6.3 5.1.7 7.6.2 1.8.6 3.6.9 5.4.5 2.5 1.1 4.9 1.7 7.4.5 1.8 1 3.6 1.6 5.4.8 2.4 1.7 4.7 2.7 7.1.7 1.7 1.4 3.5 2.3 5.2 1.1 2.2 2.3 4.5 3.5 6.7 1 1.7 2 3.4 3 5 .4.6.7 1.2 1.1 1.8l740.4 1077.8c11.7 17 27.9 29.7 46.3 37.1 18.4 7.4 38.9 9.4 59.1 5.1l1279.6-268.9c.7-.1 1.4-.4 2-.5 1.9-.4 3.8-1 5.6-1.5 2.4-.7 4.8-1.5 7.2-2.4 1.7-.6 3.5-1.4 5.3-2.2 2.3-1 4.6-2.1 6.8-3.3 1.7-.9 3.3-1.8 4.9-2.8 2.2-1.3 4.3-2.7 6.3-4.2 1.5-1 3-2.1 4.5-3.3 2-1.6 3.9-3.3 5.8-5 1.3-1.2 2.7-2.4 3.9-3.8 1.9-1.9 3.5-3.9 5.2-6 1.1-1.3 2.3-2.6 3.4-4 1.7-2.3 3.3-4.8 4.8-7.3.8-1.3 1.7-2.5 2.4-3.8 2.2-3.9 4.2-7.9 5.8-12.1l269.6-673.3c1.7-4.2 3-8.5 4.1-12.8.4-1.2.6-2.7.9-4.1zM689.4 1031L443.5 671.9l425.8-90.2 246 359.2-425.9 90.1zm151-652.3l-522 110.5L75.1 133.9l942.7-198.1-177.4 442.9zM101.8 535.1l-301.2 63.8L-72.1 281l173.9 254.1zm125.1 182.6l301.5 440.2-177.4 443-545.5-794 421.4-89.2zM718.3 1234l522-110.5 243.4 355.4L541 1677l177.3-443zm738.5-156.4l301.3-63.8-127.3 317.8-174-254zM1331.7 895l-301.5-440.2 177.4-443 545.5 794-421.4 89.2z" opacity=".51"/></g><path fill="#1E1F26" d="M0-1h2351.2v648.7H0z" opacity=".55" clip-path="url(#b)"/></svg>